<svg xmlns="http://www.w3.org/2000/svg"  viewBox="0 0 48 48" width="48px" height="48px"><path fill="#6c19ff" d="M24,12c-8.25,0-21,2-21,16c0,7.879,7,15,16,15c1,0,4,0,5,0C24,34.75,24,12,24,12z"/><path fill="#6c19ff" d="M24,12c8.25,0,21,2,21,16c0,7.879-7,15-16,15c-1,0-4,0-5,0C24,34.75,24,12,24,12z"/><path fill="#6c19ff" d="M8,7c-1.5,3-2,8-2,12.25C8.5,18.75,19,13,19,13C18,11,12,7.5,8,7z"/><path fill="#6c19ff" d="M40,7c1.5,3,2,8,2,12.25C39.5,18.75,29,13,29,13C30,11,36,7.5,40,7z"/><path fill="#fac8d5" d="M40,31c0-4.418-3.582-8-8-8c-4,0-5.5,1-8,1s-4-1-8-1c-4.418,0-8,3.582-8,8	c0,2.526,1.174,4.776,3.003,6.242L11,37.25c0.082,0.065,0.173,0.121,0.258,0.182c0.124,0.092,0.248,0.183,0.378,0.268	c0.066,0.042,0.134,0.081,0.201,0.122c0.153,0.094,0.307,0.185,0.466,0.269C15.852,39.996,20.903,40,24,40s8.148-0.004,11.696-1.909	c0.16-0.083,0.313-0.175,0.466-0.269c0.067-0.041,0.136-0.08,0.201-0.122c0.13-0.085,0.254-0.176,0.378-0.268	c0.085-0.062,0.175-0.118,0.258-0.182l-0.003-0.008C38.826,35.776,40,33.526,40,31z"/><ellipse cx="16.5" cy="32" fill="#2100c4" rx="2.5" ry="4"/><ellipse cx="31.5" cy="32" fill="#2100c4" rx="2.5" ry="4"/><path fill="#2100c4" d="M6.014,18.336C6.009,18.641,6,18.951,6,19.25L19,13c-0.103-0.205-0.27-0.429-0.47-0.662	C13.901,12.948,9.039,14.547,6.014,18.336z"/><path fill="#2100c4" d="M41.986,18.336c-3.026-3.789-7.887-5.388-12.516-5.997C29.27,12.571,29.103,12.795,29,13l13,6.25	C42,18.951,41.991,18.641,41.986,18.336z"/></svg>