<svg id="visual" viewBox="0 0 960 100" width="960" height="100" xmlns="http://www.w3.org/2000/svg" xmlns:xlink="http://www.w3.org/1999/xlink" version="1.1"><path d="M0 66L13.3 64.8C26.7 63.7 53.3 61.3 80 60.5C106.7 59.7 133.3 60.3 160 57.7C186.7 55 213.3 49 240 45.3C266.7 41.7 293.3 40.3 320 45.3C346.7 50.3 373.3 61.7 400 66.2C426.7 70.7 453.3 68.3 480 60.2C506.7 52 533.3 38 560 32.2C586.7 26.3 613.3 28.7 640 32.7C666.7 36.7 693.3 42.3 720 48.2C746.7 54 773.3 60 800 57.8C826.7 55.7 853.3 45.3 880 43.8C906.7 42.3 933.3 49.7 946.7 53.3L960 57L960 101L946.7 101C933.3 101 906.7 101 880 101C853.3 101 826.7 101 800 101C773.3 101 746.7 101 720 101C693.3 101 666.7 101 640 101C613.3 101 586.7 101 560 101C533.3 101 506.7 101 480 101C453.3 101 426.7 101 400 101C373.3 101 346.7 101 320 101C293.3 101 266.7 101 240 101C213.3 101 186.7 101 160 101C133.3 101 106.7 101 80 101C53.3 101 26.7 101 13.3 101L0 101Z" fill="#000000" stroke-linecap="round" stroke-linejoin="miter"></path></svg>