<svg id="visual" viewBox="0 0 900 100" width="900" height="100" xmlns="http://www.w3.org/2000/svg" xmlns:xlink="http://www.w3.org/1999/xlink" version="1.1"><path d="M0 68L12.5 65.7C25 63.3 50 58.7 75 52.5C100 46.3 125 38.7 150 39.3C175 40 200 49 225 55C250 61 275 64 300 62.7C325 61.3 350 55.7 375 48.7C400 41.7 425 33.3 450 30.7C475 28 500 31 525 38.2C550 45.3 575 56.7 600 59.5C625 62.3 650 56.7 675 55.2C700 53.7 725 56.3 750 51.8C775 47.3 800 35.7 825 37.2C850 38.7 875 53.3 887.5 60.7L900 68L900 101L887.5 101C875 101 850 101 825 101C800 101 775 101 750 101C725 101 700 101 675 101C650 101 625 101 600 101C575 101 550 101 525 101C500 101 475 101 450 101C425 101 400 101 375 101C350 101 325 101 300 101C275 101 250 101 225 101C200 101 175 101 150 101C125 101 100 101 75 101C50 101 25 101 12.5 101L0 101Z" fill="#511ed4" stroke-linecap="round" stroke-linejoin="miter"></path></svg>
