<svg id="visual" viewBox="0 0 450 200" width="450" height="200" xmlns="http://www.w3.org/2000/svg" xmlns:xlink="http://www.w3.org/1999/xlink" version="1.1"><path d="M0 49L12.5 55.5C25 62 50 75 75 83.2C100 91.3 125 94.7 150 91.2C175 87.7 200 77.3 225 70.3C250 63.3 275 59.7 300 59.7C325 59.7 350 63.3 375 64.3C400 65.3 425 63.7 437.5 62.8L450 62L450 201L437.5 201C425 201 400 201 375 201C350 201 325 201 300 201C275 201 250 201 225 201C200 201 175 201 150 201C125 201 100 201 75 201C50 201 25 201 12.5 201L0 201Z" fill="#080808"></path><path d="M0 97L12.5 96.3C25 95.7 50 94.3 75 93.8C100 93.3 125 93.7 150 98.8C175 104 200 114 225 117C250 120 275 116 300 110.3C325 104.7 350 97.3 375 96.8C400 96.3 425 102.7 437.5 105.8L450 109L450 201L437.5 201C425 201 400 201 375 201C350 201 325 201 300 201C275 201 250 201 225 201C200 201 175 201 150 201C125 201 100 201 75 201C50 201 25 201 12.5 201L0 201Z" fill="#0d0d0d"></path><path d="M0 142L12.5 137.2C25 132.3 50 122.7 75 124.2C100 125.7 125 138.3 150 137.2C175 136 200 121 225 116.7C250 112.3 275 118.7 300 123.2C325 127.7 350 130.3 375 134.8C400 139.3 425 145.7 437.5 148.8L450 152L450 201L437.5 201C425 201 400 201 375 201C350 201 325 201 300 201C275 201 250 201 225 201C200 201 175 201 150 201C125 201 100 201 75 201C50 201 25 201 12.5 201L0 201Z" fill="#111111"></path><path d="M0 169L12.5 166.5C25 164 50 159 75 154.5C100 150 125 146 150 148.3C175 150.7 200 159.3 225 160.5C250 161.7 275 155.3 300 155.2C325 155 350 161 375 165.8C400 170.7 425 174.3 437.5 176.2L450 178L450 201L437.5 201C425 201 400 201 375 201C350 201 325 201 300 201C275 201 250 201 225 201C200 201 175 201 150 201C125 201 100 201 75 201C50 201 25 201 12.5 201L0 201Z" fill="#141414"></path></svg>