<svg id="visual" viewBox="0 0 900 100" width="900" height="100" xmlns="http://www.w3.org/2000/svg" xmlns:xlink="http://www.w3.org/1999/xlink" version="1.1"><path d="M0 24L21.5 26.7C43 29.3 86 34.7 128.8 37.7C171.7 40.7 214.3 41.3 257.2 38.5C300 35.7 343 29.3 385.8 26.2C428.7 23 471.3 23 514.2 27.5C557 32 600 41 642.8 42C685.7 43 728.3 36 771.2 30.8C814 25.7 857 22.3 878.5 20.7L900 19L900 101L878.5 101C857 101 814 101 771.2 101C728.3 101 685.7 101 642.8 101C600 101 557 101 514.2 101C471.3 101 428.7 101 385.8 101C343 101 300 101 257.2 101C214.3 101 171.7 101 128.8 101C86 101 43 101 21.5 101L0 101Z" fill="#080808"></path><path d="M0 38L21.5 40.7C43 43.3 86 48.7 128.8 50.3C171.7 52 214.3 50 257.2 51.3C300 52.7 343 57.3 385.8 56.7C428.7 56 471.3 50 514.2 49.2C557 48.3 600 52.7 642.8 51.2C685.7 49.7 728.3 42.3 771.2 41.3C814 40.3 857 45.7 878.5 48.3L900 51L900 101L878.5 101C857 101 814 101 771.2 101C728.3 101 685.7 101 642.8 101C600 101 557 101 514.2 101C471.3 101 428.7 101 385.8 101C343 101 300 101 257.2 101C214.3 101 171.7 101 128.8 101C86 101 43 101 21.5 101L0 101Z" fill="#0d0d0d"></path><path d="M0 57L21.5 59.2C43 61.3 86 65.7 128.8 68.3C171.7 71 214.3 72 257.2 71.8C300 71.7 343 70.3 385.8 68.3C428.7 66.3 471.3 63.7 514.2 61.5C557 59.3 600 57.7 642.8 58.3C685.7 59 728.3 62 771.2 64.8C814 67.7 857 70.3 878.5 71.7L900 73L900 101L878.5 101C857 101 814 101 771.2 101C728.3 101 685.7 101 642.8 101C600 101 557 101 514.2 101C471.3 101 428.7 101 385.8 101C343 101 300 101 257.2 101C214.3 101 171.7 101 128.8 101C86 101 43 101 21.5 101L0 101Z" fill="#111111"></path><path d="M0 76L21.5 78.2C43 80.3 86 84.7 128.8 85.8C171.7 87 214.3 85 257.2 84.7C300 84.3 343 85.7 385.8 84.7C428.7 83.7 471.3 80.3 514.2 78C557 75.7 600 74.3 642.8 74.2C685.7 74 728.3 75 771.2 76C814 77 857 78 878.5 78.5L900 79L900 101L878.5 101C857 101 814 101 771.2 101C728.3 101 685.7 101 642.8 101C600 101 557 101 514.2 101C471.3 101 428.7 101 385.8 101C343 101 300 101 257.2 101C214.3 101 171.7 101 128.8 101C86 101 43 101 21.5 101L0 101Z" fill="#141414"></path></svg>